<?xml version="1.0" encoding="UTF-8" standalone="no"?>
<!-- Created with Inkscape (http://www.inkscape.org/) -->

<svg
   xmlns:dc="http://purl.org/dc/elements/1.1/"
   xmlns:cc="http://creativecommons.org/ns#"
   xmlns:rdf="http://www.w3.org/1999/02/22-rdf-syntax-ns#"
   xmlns:svg="http://www.w3.org/2000/svg"
   xmlns="http://www.w3.org/2000/svg"
   xmlns:sodipodi="http://sodipodi.sourceforge.net/DTD/sodipodi-0.dtd"
   xmlns:inkscape="http://www.inkscape.org/namespaces/inkscape"
   version="1.1"
   id="svg2"
   xml:space="preserve"
   width="339.68597"
   height="340.23581"
   viewBox="0 0 339.68599 340.23581"
   sodipodi:docname="logo-square.svg"
   inkscape:version="0.92.3 (2405546, 2018-03-11)"><metadata
     id="metadata8"><rdf:RDF><cc:Work
         rdf:about=""><dc:format>image/svg+xml</dc:format><dc:type
           rdf:resource="http://purl.org/dc/dcmitype/StillImage" /><dc:title></dc:title></cc:Work></rdf:RDF></metadata><defs
     id="defs6"><clipPath
       clipPathUnits="userSpaceOnUse"
       id="clipPath18"><path
         d="M 0,595.28 H 841.89 V 0 H 0 Z"
         id="path16"
         inkscape:connector-curvature="0" /></clipPath></defs><sodipodi:namedview
     pagecolor="#ffffff"
     bordercolor="#666666"
     borderopacity="1"
     objecttolerance="10"
     gridtolerance="10"
     guidetolerance="10"
     inkscape:pageopacity="0"
     inkscape:pageshadow="2"
     inkscape:window-width="1853"
     inkscape:window-height="1025"
     id="namedview4"
     showgrid="false"
     showguides="false"
     inkscape:guide-bbox="true"
     inkscape:zoom="0.59467815"
     inkscape:cx="639.04843"
     inkscape:cy="247.79075"
     inkscape:window-x="67"
     inkscape:window-y="27"
     inkscape:window-maximized="1"
     inkscape:current-layer="g10"><sodipodi:guide
       position="342.69453,175.15704"
       orientation="0,1"
       id="guide61"
       inkscape:locked="false" /><sodipodi:guide
       position="548.75024,288.34657"
       orientation="0,1"
       id="guide65"
       inkscape:locked="false" /><sodipodi:guide
       position="487.51375,49.345922"
       orientation="0,1"
       id="guide67"
       inkscape:locked="false" /><sodipodi:guide
       position="933.63904,340.23584"
       orientation="0,1"
       id="guide19"
       inkscape:locked="false" /><sodipodi:guide
       position="354.56779,-3.4019143"
       orientation="0,1"
       id="guide21"
       inkscape:locked="false" /><sodipodi:guide
       position="217.59761,227.11007"
       orientation="0,1"
       id="guide824"
       inkscape:locked="false" /><sodipodi:guide
       position="391.20007,123.66204"
       orientation="0,1"
       id="guide826"
       inkscape:locked="false" /></sodipodi:namedview><g
     id="g10"
     inkscape:groupmode="layer"
     inkscape:label="bit song logo (1)"
     transform="matrix(1.3333333,0,0,-1.3333333,106.43228,437.49508)"><g
   aria-label="explorer"
   transform="matrix(1.0055905,-0.0075122,-0.00759745,-0.99438383,0,0)"
   style="font-variant:normal;font-weight:normal;font-stretch:normal;font-size:218.82969666px;font-family:'Neon 80s';-inkscape-font-specification:Neon80s;writing-mode:lr-tb;fill:#ff1744;fill-opacity:1;fill-rule:nonzero;stroke:none;stroke-width:1.33478022"
   id="text22" />


<g
   id="g24"
   transform="matrix(1.455822,0,0,1.4746187,96.596666,154.48054)"
   style="fill:#ffffff;fill-opacity:1"><path
     d="m 0,0 c 0,-1.964 -1.592,-3.556 -3.556,-3.556 h -7.829 c -1.963,0 -3.554,1.592 -3.554,3.556 v 44.927 c 0,1.964 1.591,3.556 3.554,3.556 h 7.829 C -1.592,48.483 0,46.891 0,44.927 Z m -17.738,-9.813 c 0,-1.964 -1.592,-3.556 -3.556,-3.556 h -7.829 c -1.964,0 -3.556,1.592 -3.556,3.556 v 65.171 c 0,1.964 1.592,3.556 3.556,3.556 h 7.829 c 1.964,0 3.556,-1.592 3.556,-3.556 z m -17.689,5.035 c 0,-1.963 -1.592,-3.555 -3.555,-3.555 h -7.83 c -1.963,0 -3.555,1.592 -3.555,3.555 v 54.772 c 0,1.964 1.592,3.555 3.555,3.555 h 7.83 c 1.963,0 3.555,-1.591 3.555,-3.555 z m 1.743,122.531 c -6.72,0 -13.263,-0.751 -19.548,-2.17 0.07,-0.281 0.119,-0.571 0.119,-0.874 V 7.878 c 0,-2.248 -1.822,-4.07 -4.07,-4.07 h -7.913 c -1.722,0 -3.117,1.396 -3.117,3.117 V 110.75 c -31.153,-13.245 -52.97,-43.861 -52.97,-79.52 0,-47.785 39.175,-86.523 87.499,-86.523 48.325,0 87.498,38.738 87.498,86.523 0,47.786 -39.173,86.523 -87.498,86.523"
     style="fill:#ffffff;fill-opacity:1;fill-rule:nonzero;stroke:none"
     id="path26"
     inkscape:connector-curvature="0" /></g></g></svg>