<?xml version="1.0" encoding="UTF-8" standalone="no"?>
<!-- Created with Inkscape (http://www.inkscape.org/) -->

<svg
   xmlns:dc="http://purl.org/dc/elements/1.1/"
   xmlns:cc="http://creativecommons.org/ns#"
   xmlns:rdf="http://www.w3.org/1999/02/22-rdf-syntax-ns#"
   xmlns:svg="http://www.w3.org/2000/svg"
   xmlns="http://www.w3.org/2000/svg"
   xmlns:sodipodi="http://sodipodi.sourceforge.net/DTD/sodipodi-0.dtd"
   xmlns:inkscape="http://www.inkscape.org/namespaces/inkscape"
   version="1.1"
   id="svg2"
   xml:space="preserve"
   width="1420.9958"
   height="340.23581"
   viewBox="0 0 1420.9959 340.23581"
   sodipodi:docname="logo-white.svg"
   inkscape:version="0.92.3 (2405546, 2018-03-11)"><metadata
     id="metadata8"><rdf:RDF><cc:Work
         rdf:about=""><dc:format>image/svg+xml</dc:format><dc:type
           rdf:resource="http://purl.org/dc/dcmitype/StillImage" /><dc:title /></cc:Work></rdf:RDF></metadata><defs
     id="defs6"><clipPath
       clipPathUnits="userSpaceOnUse"
       id="clipPath18"><path
         d="M 0,595.28 H 841.89 V 0 H 0 Z"
         id="path16"
         inkscape:connector-curvature="0" /></clipPath></defs><sodipodi:namedview
     pagecolor="#ffffff"
     bordercolor="#666666"
     borderopacity="1"
     objecttolerance="10"
     gridtolerance="10"
     guidetolerance="10"
     inkscape:pageopacity="0"
     inkscape:pageshadow="2"
     inkscape:window-width="1853"
     inkscape:window-height="1025"
     id="namedview4"
     showgrid="false"
     showguides="false"
     inkscape:guide-bbox="true"
     inkscape:zoom="0.59467815"
     inkscape:cx="639.04843"
     inkscape:cy="247.79074"
     inkscape:window-x="67"
     inkscape:window-y="27"
     inkscape:window-maximized="1"
     inkscape:current-layer="text22"><sodipodi:guide
       position="342.69453,175.15703"
       orientation="0,1"
       id="guide61"
       inkscape:locked="false" /><sodipodi:guide
       position="548.75024,288.34656"
       orientation="0,1"
       id="guide65"
       inkscape:locked="false" /><sodipodi:guide
       position="487.51375,49.345916"
       orientation="0,1"
       id="guide67"
       inkscape:locked="false" /><sodipodi:guide
       position="933.63903,340.23583"
       orientation="0,1"
       id="guide19"
       inkscape:locked="false" /><sodipodi:guide
       position="354.56779,-3.4019199"
       orientation="0,1"
       id="guide21"
       inkscape:locked="false" /><sodipodi:guide
       position="217.59761,227.11007"
       orientation="0,1"
       id="guide824"
       inkscape:locked="false" /><sodipodi:guide
       position="391.20007,123.66203"
       orientation="0,1"
       id="guide826"
       inkscape:locked="false" /></sodipodi:namedview><g
     id="g10"
     inkscape:groupmode="layer"
     inkscape:label="bit song logo (1)"
     transform="matrix(1.3333333,0,0,-1.3333333,106.43228,437.49508)"><g
   aria-label="explorer"
   transform="matrix(1.0055905,-0.0075122,-0.00759745,-0.99438383,0,0)"
   style="font-variant:normal;font-weight:normal;font-stretch:normal;font-size:218.82969666px;font-family:'Neon 80s';-inkscape-font-specification:Neon80s;writing-mode:lr-tb;fill:#ff1744;fill-opacity:1;fill-rule:nonzero;stroke:none;stroke-width:1.33478022"
   id="text22"><g
     aria-label="&lt;dev /&gt;"
     transform="matrix(0.99438383,-0.0075122,0.00759745,1.0055905,0,0)"
     style="font-style:normal;font-variant:normal;font-weight:normal;font-stretch:normal;font-size:231.97966003px;line-height:1.25;font-family:'Neon 80s';-inkscape-font-specification:'Neon 80s';letter-spacing:0px;word-spacing:0px;fill:#ffffff;fill-opacity:1;stroke:none;stroke-width:1.61271811"
     id="text30"><path
       d="m 261.66589,-189.09994 q -2.26542,-0.7929 -4.19104,-2.71851 -3.28486,-3.28487 -3.28486,-8.04227 0,-4.64412 3.28486,-8.04226 1.35926,-1.35926 2.94506,-2.15215 l 45.30853,-22.65427 q 2.26542,-1.13271 5.09721,-1.13271 4.64412,0 7.92899,3.39814 3.39814,3.28487 3.39814,7.92899 0,4.7574 -3.28487,8.04226 -2.03889,1.92562 -4.41758,2.71852 l -23.67371,11.78021 25.03296,12.57312 q 1.5858,0.7929 3.05833,2.15215 3.28487,3.39814 3.28487,8.04227 0,4.75739 -3.39814,8.04226 -3.28487,3.28487 -7.92899,3.28487 -3.62469,0 -6.3432,-1.81234 z"
       style="fill:#ffffff;stroke-width:1.61271811"
       id="path45" /><path
       d="m 434.85774,-174.71448 q -0.11327,-1.01945 -0.11327,-2.03889 v -4.30431 q -1.24598,-11.32713 -9.62806,-19.70921 -9.85461,-9.8546 -23.78698,-9.8546 -13.93237,0 -23.78698,9.8546 -9.74133,9.85461 -9.74133,23.78698 0,13.93237 9.74133,23.78698 9.85461,9.74133 23.78698,9.74133 13.93237,0 23.78698,-9.8546 9.0617,-8.94844 9.74133,-21.40828 z m 22.99408,-1.81234 q -0.22654,23.10734 -16.53761,39.41841 -16.53762,16.53762 -39.98478,16.53762 -23.44716,0 -39.98477,-16.53762 -16.53762,-16.53761 -16.53762,-39.98477 0,-23.44716 16.53762,-39.98478 16.53761,-16.53761 39.98477,-16.53761 18.91631,0 33.41504,10.87405 v -33.30177 q 0,-4.7574 3.39814,-8.15553 3.39814,-3.39814 8.15553,-3.39814 4.7574,0 8.15554,3.39814 3.39814,3.39813 3.39814,8.15553 z"
       style="fill:#ffffff;stroke-width:1.61271811"
       id="path47" /><path
       d="m 551.41393,-207.90298 q -6.22992,-2.83178 -13.70583,-2.83178 -13.93237,0 -23.78698,9.8546 -9.8546,9.74134 -9.8546,23.67371 0,13.93237 9.8546,23.78697 9.85461,9.85461 23.78698,9.85461 13.8191,0 23.67371,-9.74133 0.11327,-0.11328 0.22654,-0.22655 3.28487,-3.28487 8.04226,-3.28487 4.7574,0 8.15554,3.39814 3.39814,3.28487 3.39814,8.04227 0,4.75739 -3.39814,8.15553 -0.11327,0.11327 -0.22654,0.22655 -16.42435,16.42434 -39.87151,16.42434 -23.44716,0 -39.98477,-16.53762 -16.53762,-16.53761 -16.53762,-39.98477 0,-23.44716 16.53762,-39.98478 16.53761,-16.53761 39.98477,-16.53761 23.44716,0 39.87151,16.42434 l -0.11328,0.11327 q 0,0.11327 0.11328,0.11327 3.28486,3.28487 3.28486,8.04227 0,4.64412 -3.28486,7.92899 l -32.3956,32.16906 q -3.39814,3.28486 -8.15554,3.28486 -4.87066,0 -8.2688,-3.28486 -3.28487,-3.39814 -3.28487,-8.26881 0,-4.7574 3.28487,-8.15554 z"
       style="fill:#ffffff;stroke-width:1.61271811"
       id="path49" /><path
       d="m 667.85685,-127.93343 q -0.7929,2.26543 -2.60524,3.9645 -3.28487,3.39814 -8.04227,3.39814 -4.64412,0 -7.92899,-3.39814 -1.81234,-1.69907 -2.60524,-3.85123 l -44.06254,-88.23835 q -2.03889,-2.83179 -2.03889,-6.45647 0,-4.64412 3.28487,-7.92899 3.39814,-3.39814 8.04227,-3.39814 4.75739,0 8.04226,3.28487 1.13271,1.13271 1.81234,2.37869 h 0.11327 l 35.34065,70.79458 35.34065,-70.79458 0.11328,0.11328 q 0.79289,-1.35926 1.92561,-2.49197 3.28487,-3.28487 7.92899,-3.28487 4.7574,0 8.04226,3.39814 3.28487,3.28487 3.28487,7.92899 0,3.73795 -2.15215,6.56974 z"
       style="fill:#ffffff;stroke-width:1.61271811"
       id="path51" /><path
       d="m 900.74266,-288.66543 q 4.19104,2.49197 5.43702,7.02282 0.45309,1.5858 0.45309,3.1716 0,2.94505 -1.5858,5.66356 l -90.0507,155.97461 q -2.3787,4.07777 -7.02282,5.32375 -1.5858,0.45309 -3.1716,0.45309 -2.94505,0 -5.66356,-1.5858 -4.07777,-2.3787 -5.32375,-7.02282 -0.45309,-1.5858 -0.45309,-3.1716 0,-2.83178 1.5858,-5.55029 l 90.0507,-155.97461 q 2.37869,-4.19104 7.02282,-5.43702 1.5858,-0.45309 3.1716,-0.45309 2.83178,0 5.55029,1.5858 z"
       style="fill:#ffffff;stroke-width:1.61271811"
       id="path53" /><path
       d="m 978.44677,-189.09994 q 2.26542,-0.7929 4.19104,-2.71851 3.28486,-3.28487 3.28486,-8.04227 0,-4.64412 -3.28486,-8.04226 -1.35926,-1.35926 -2.94506,-2.15215 l -45.30853,-22.65427 q -2.26542,-1.13271 -5.0972,-1.13271 -4.64413,0 -8.04227,3.39814 -3.28487,3.28487 -3.28487,7.92899 0,4.7574 3.28487,8.04226 2.03889,1.92562 4.41758,2.71852 l 23.67371,11.78021 -25.03296,12.57312 q -1.5858,0.7929 -3.05833,2.15215 -3.28487,3.39814 -3.28487,8.04227 0,4.75739 3.28487,8.04226 3.39814,3.28487 8.04227,3.28487 3.62468,0 6.34319,-1.81234 z"
       style="fill:#ffffff;stroke-width:1.61271811"
       id="path55" /></g></g>


<g
   id="g24"
   transform="matrix(1.455822,0,0,1.4746187,96.596666,154.48054)"
   style="fill:#ffffff;fill-opacity:1"><path
     d="m 0,0 c 0,-1.964 -1.592,-3.556 -3.556,-3.556 h -7.829 c -1.963,0 -3.554,1.592 -3.554,3.556 v 44.927 c 0,1.964 1.591,3.556 3.554,3.556 h 7.829 C -1.592,48.483 0,46.891 0,44.927 Z m -17.738,-9.813 c 0,-1.964 -1.592,-3.556 -3.556,-3.556 h -7.829 c -1.964,0 -3.556,1.592 -3.556,3.556 v 65.171 c 0,1.964 1.592,3.556 3.556,3.556 h 7.829 c 1.964,0 3.556,-1.592 3.556,-3.556 z m -17.689,5.035 c 0,-1.963 -1.592,-3.555 -3.555,-3.555 h -7.83 c -1.963,0 -3.555,1.592 -3.555,3.555 v 54.772 c 0,1.964 1.592,3.555 3.555,3.555 h 7.83 c 1.963,0 3.555,-1.591 3.555,-3.555 z m 1.743,122.531 c -6.72,0 -13.263,-0.751 -19.548,-2.17 0.07,-0.281 0.119,-0.571 0.119,-0.874 V 7.878 c 0,-2.248 -1.822,-4.07 -4.07,-4.07 h -7.913 c -1.722,0 -3.117,1.396 -3.117,3.117 V 110.75 c -31.153,-13.245 -52.97,-43.861 -52.97,-79.52 0,-47.785 39.175,-86.523 87.499,-86.523 48.325,0 87.498,38.738 87.498,86.523 0,47.786 -39.173,86.523 -87.498,86.523"
     style="fill:#ffffff;fill-opacity:1;fill-rule:nonzero;stroke:none"
     id="path26"
     inkscape:connector-curvature="0" /></g><path
   transform="scale(1,-1)"
   style="fill:#ffffff;fill-opacity:1;stroke-width:0.62090272"
   d="m 214.44229,-289.20438 h 2.52237 v 179.25049 h -2.52237 z"
   id="rect63"
   inkscape:connector-curvature="0" /></g></svg>